<svg width="20" height="21" viewBox="0 0 20 21" fill="none" xmlns="http://www.w3.org/2000/svg">
<path fill-rule="evenodd" clip-rule="evenodd" d="M10 20.0329C15.5228 20.0329 20 15.5484 20 10.0164C20 4.48451 15.5228 0 10 0C4.47715 0 0 4.48451 0 10.0164C0 15.5484 4.47715 20.0329 10 20.0329ZM9.99981 8.82149L12.0622 6.75909C12.2243 6.59705 12.4894 6.59705 12.6515 6.75909L13.2407 7.34835C13.4028 7.5104 13.4028 7.77556 13.2407 7.93761L11.1783 10L13.2407 12.0624C13.4028 12.2244 13.4028 12.4896 13.2407 12.6517L12.6515 13.2409C12.4894 13.403 12.2243 13.403 12.0622 13.2409L9.99981 11.1785L7.93742 13.2409C7.77538 13.403 7.51021 13.403 7.34817 13.2409L6.75891 12.6517C6.59686 12.4896 6.59686 12.2244 6.75891 12.0624L8.8213 10L6.75891 7.93761C6.59686 7.77556 6.59686 7.5104 6.75891 7.34835L7.34817 6.75909C7.51021 6.59705 7.77538 6.59705 7.93742 6.75909L9.99981 8.82149Z" fill="white"/>
</svg>
