<svg width="26" height="30" viewBox="0 0 26 30" fill="none" xmlns="http://www.w3.org/2000/svg">
<path d="M9.31059 21.6587C11.9119 15.4697 14.9733 10.0522 18.4063 4.84744C19.0345 3.88984 19.6627 2.90564 20.4325 2.05444C21.6447 0.706697 23.4497 0.662364 24.6442 1.52243C26.2634 2.68397 24.4407 3.74797 23.8213 4.65238C19.1938 11.462 15.3361 18.6529 12.5578 26.4201C12.0712 27.7856 11.7084 29.0713 9.79723 29.0358C8.13381 29.0092 7.25786 28.2467 6.55887 26.8368C5.25821 24.2034 3.94871 21.57 2.18796 19.176C1.5686 18.3337 -0.307177 17.314 1.25007 16.0993C2.4357 15.1771 4.25839 15.1505 5.45287 16.5337C6.70043 17.9702 7.76219 19.575 9.31059 21.6587Z" fill="white"/>
</svg>
